<?xml version="1.0" standalone="no"?>
<!DOCTYPE svg PUBLIC "-//W3C//DTD SVG 20010904//EN"
 "http://www.w3.org/TR/2001/REC-SVG-20010904/DTD/svg10.dtd">
<svg version="1.0" xmlns="http://www.w3.org/2000/svg"
 width="1058.000000pt" height="1280.000000pt" viewBox="0 0 1058.000000 1280.000000"
 preserveAspectRatio="xMidYMid meet">
<g transform="translate(0.000000,1280.000000) scale(0.100000,-0.100000)"
fill="#000000" stroke="none">
<path d="M2430 12785 c-375 -41 -713 -143 -1055 -318 -255 -131 -456 -279
-656 -484 -350 -358 -573 -815 -668 -1368 -38 -222 -46 -332 -45 -630 1 -575
71 -929 271 -1374 180 -399 429 -792 795 -1252 l108 -137 2 -1423 3 -1424 21
-52 c99 -240 373 -341 603 -223 68 34 147 120 184 197 l32 68 5 953 5 952 192
-192 193 -193 2 -2297 3 -2297 21 -27 c38 -51 71 -69 129 -69 58 0 91 18 129
69 l21 27 3 2146 2 2145 85 -77 85 -77 2 -1607 3 -1606 26 -55 c32 -67 96
-133 164 -167 60 -31 170 -42 241 -24 101 26 199 115 241 221 17 42 18 128 23
1312 l5 1267 510 -466 c281 -256 658 -601 838 -767 181 -165 332 -301 337
-301 5 0 110 93 234 207 124 115 227 208 230 208 4 0 6 -798 6 -1772 0 -1742
0 -1774 20 -1805 59 -98 212 -92 268 10 16 30 17 151 20 1949 l2 1917 28 21
c15 12 52 46 84 76 31 30 59 54 62 54 3 0 6 -550 6 -1223 l0 -1223 26 -52 c73
-147 282 -169 384 -39 53 67 50 -15 50 1530 l0 1434 342 314 c955 877 1604
1522 2113 2104 533 609 927 1186 1144 1677 196 444 265 801 265 1373 0 320
-12 460 -64 715 -84 418 -250 787 -491 1096 -100 127 -302 325 -432 422 -544
409 -1282 621 -1947 562 -320 -29 -642 -112 -954 -245 -449 -192 -917 -512
-1308 -894 l-88 -86 -87 86 c-393 384 -858 702 -1309 894 -484 207 -999 291
-1464 240z m517 -1090 c543 -77 1105 -407 1634 -960 154 -161 233 -261 474
-598 125 -175 231 -317 235 -315 5 2 111 145 235 318 125 173 262 356 303 405
439 520 967 906 1466 1070 190 63 320 86 518 92 311 10 552 -42 843 -182 356
-171 577 -401 706 -734 98 -255 124 -423 124 -801 -1 -493 -47 -701 -239
-1075 -384 -751 -1176 -1646 -2751 -3111 -345 -321 -1196 -1094 -1205 -1094
-9 0 -871 783 -1270 1154 -1530 1424 -2332 2339 -2704 3086 -115 231 -175 419
-206 645 -17 128 -24 546 -11 676 63 623 324 1017 832 1258 183 86 344 137
528 166 116 18 363 18 488 0z"/>
</g>
</svg>
